<svg xmlns="http://www.w3.org/2000/svg" xmlns:xlink="http://www.w3.org/1999/xlink" width="512" height="512" viewBox="0 0 512 512"><defs><style>.a{clip-path:url(#b);}.b{fill:#fff;}</style><clipPath id="b"><rect width="512" height="512"/></clipPath></defs><g id="a" class="a"><rect class="b" width="512" height="512"/><circle cx="256" cy="256" r="256"/><path class="b" d="M245,357H16A16,16,0,0,1,0,341V16A16,16,0,0,1,16,0H245a16,16,0,0,1,16,16V341a16,16,0,0,1-16,16ZM47,292a16,16,0,0,0,0,32H215a16,16,0,0,0,0-32Zm0-58a16,16,0,0,0,0,32H215a16,16,0,0,0,0-32Zm0-58a16,16,0,1,0,0,32H215a16,16,0,1,0,0-32Zm0-58a16,16,0,0,0,0,32H215a16,16,0,1,0,0-32Z" transform="translate(126 78)"/></g></svg>